<svg version="1.2" baseProfile="tiny" xmlns="http://www.w3.org/2000/svg" width="194.88" height="194.295" viewBox="0 0 194.88 194.295"><path fill-rule="evenodd" fill="#F79820" d="M97.431 0c56.574-.09 97.662 45.893 97.467 97.427-.196 51.848-42.424 97.219-98.252 96.921-52.765-.282-97.345-43.131-96.66-98.747C.618 44.218 41.551-.066 97.431 0zm81.871 97.086c.275-44.668-36.003-81.758-81.267-82.115-45.17-.356-82.668 35.757-82.713 81.924-.044 45.781 36.703 82.101 82 82.113 46.233.014 82.176-37.652 81.98-81.922z"/><path fill-rule="evenodd" fill="#F79820" d="M52.986 69.408c.589-.088 1.177-.253 1.766-.255 6.983-.018 13.967-.027 20.95.017.595.004 1.188.407 1.781.625-.547.504-1.015 1.222-1.662 1.464-.949.356-2.037.321-3.044.549-1.657.375-2.845 1.236-2.915 3.127-.03.805-.142 1.609-.144 2.414-.028 10.331-.129 20.662-.026 30.992.056 5.633.061 11.28 1.255 16.854 1.254 5.854 4.65 9.654 10.326 11.422 7.43 2.313 14.87 2.248 22.248-.196 6.262-2.074 9.538-6.674 10.255-13.057.468-4.167.706-8.38.731-12.573.088-14.255-.005-28.511.08-42.766.013-2.158.384-4.376.981-6.454 1.192-4.148 4.883-6.763 9.17-6.85 5.132-.104 10.264-.26 15.396-.289.705-.003 1.413.597 2.12.917-.653.511-1.235 1.267-1.974 1.479-1.425.41-2.945.474-4.413.752-2.332.442-3.262 1.545-3.269 3.929-.02 6.983.029 13.967-.015 20.95-.083 13.041-.041 26.086-.375 39.122-.29 11.306-7.825 21.56-20.366 23.256-5.865.793-11.782 1.55-17.684 1.619-6.604.077-13.233-.512-19.497-3.057-8.248-3.351-13.117-9.51-14.423-18.192-.741-4.931-.839-9.985-.884-14.987-.101-11.137.017-22.276.039-33.416.007-3.811-.506-4.393-4.16-5.382-.876-.237-1.634-.909-2.447-1.38.068-.211.134-.422.2-.634z"/></svg>